# AST/ASF file generated using VICON BodyLanguage
# -----------------------------------------------
:version 1.10
:name VICON
:units
  mass 1.0
  length 0.45
  angle deg
:documentation
   .ast/.asf automatically generated from VICON data using
   VICON BodyBuilder and BodyLanguage model FoxedUp or BRILLIANT.MOD
:root
   order TX TY TZ RX RY RZ
   axis XYZ
   position 0 0 0  
   orientation 0 0 0 
:bonedata
  begin
     id 1 
     name lhipjoint
     direction 0.603808 -0.713975 0.35448 
     length 2.2025 
     axis 0 0 0  XYZ
  end
  begin
     id 2 
     name lfemur
     direction 0.34202 -0.939693 0  
     length 6.55877  
     axis 0 0 20  XYZ
    dof rx ry rz
    limits (-160.0 20.0)
           (-70.0 70.0)
           (-60.0 70.0)
  end
  begin
     id 3 
     name ltibia
     direction 0.34202 -0.939693 0   
     length 6.80302   
     axis 0 0 20   XYZ
    dof rx
    limits (-10.0 170.0)
  end
  begin
     id 4 
     name lfoot
     direction 0.091848 -0.25235 0.963267   
     length 2.03446   
     axis -90 7.62852e-016 20   XYZ
    dof rx rz
    limits (-45.0 90.0)
           (-70.0 20.0)
  end
  begin
     id 5 
     name ltoes
     direction 1.53608e-011 -4.21925e-011 1   
     length 1.02033   
     axis -90 7.62852e-016 20   XYZ
    dof rx
    limits (-90.0 20.0)
  end
  begin
     id 6 
     name rhipjoint
     direction -0.587285 -0.724947 0.359928   
     length 2.16916  
     axis 0 0 0  XYZ 
  end
  begin
     id 7 
     name rfemur
     direction -0.34202 -0.939693 0   
     length 6.43173   
     axis 0 0 -20   XYZ
    dof rx ry rz
    limits (-160.0 20.0)
           (-70.0 70.0)
           (-70.0 60.0)
  end
  begin
     id 8 
     name rtibia
     direction -0.34202 -0.939693 0   
     length 6.70662   
     axis 0 0 -20   XYZ
    dof rx
    limits (-10.0 170.0)
 end
 begin
     id 9 
     name rfoot
     direction -0.11854 -0.325686 0.938018   
     length 2.0773  
     axis -90 -7.62852e-016 -20   XYZ
    dof rx rz
    limits (-45.0 90.0)
           (-20.0 70.0)
  end
  begin
     id 10 
     name rtoes
     direction -1.53547e-011 -4.21838e-011 1   
     length 1.03267   
     axis -90 -7.62852e-016 -20   XYZ
    dof rx
    limits (-90.0 20.0)
  end
  begin
     id 11 
     name lowerback
     direction -0.0286554 0.999539 0.0100613   
     length 2.08751   
     axis 0 0 0   XYZ
    dof rx ry rz
    limits (-20.0 45.0)
           (-30.0 30.0)
           (-30.0 30.0)
  end
  begin
     id 12 
     name upperback
     direction 0.0227093 0.999705 -0.00860929   
     length 2.08517   
     axis 0 0 0   XYZ
    dof rx ry rz
    limits (-20.0 45.0)
           (-30.0 30.0)
           (-30.0 30.0)
  end
  begin
     id 13 
     name thorax
     direction 0.0351627 0.999285 -0.013892   
     length 2.08412   
     axis 0 0 0   XYZ
    dof rx ry rz
    limits (-20.0 45.0)
           (-30.0 30.0)
           (-30.0 30.0)
  end
  begin
     id 14 
     name lowerneck
     direction -0.0696283 0.997344 0.0213922   
     length 1.44164   
     axis 0 0 0   XYZ
    dof rx ry rz
    limits (-20.0 45.0)
           (-30.0 30.0)
           (-30.0 30.0)
  end
  begin
     id 15 
     name upperneck
     direction 0.0531 0.990412 -0.127531   
     length 1.45022   
     axis 0 0 0   XYZ
    dof rx ry rz
    limits (-20.0 45.0)
           (-30.0 30.0)
           (-30.0 30.0)
  end
  begin
     id 16
     name head
     direction 0.0188154 0.998548 -0.0504727  
     length 1.45845  
     axis 0 0 0   XYZ
    dof rx ry rz
    limits (-20.0 45.0)
           (-30.0 30.0)
           (-30.0 30.0)
  end
  begin
     id 17 
     name lclavicle
     direction 0.961559 0.260051 0.088188  
     length 2.86057  
     axis 0 0 0   XYZ
    dof ry rz
    limits (-20.0 10.0)
           (0.0 20.0)
  end
  begin
     id 18 
     name lhumerus
     direction 1 -4.48959e-011 2.88185e-027   
     length 4.36901   
     axis 180 -30 -90   XYZ
    dof rx ry rz
    limits (-60.0 90.0)
           (-90.0 90.0)
           (-90.0 90.0)
  end
  begin
     id 19
     name lradius
     direction 1 -4.48965e-011 -3.92618e-028   
     length 3.21737   
     axis 180 -30 -90   XYZ
    dof rx
    limits (-10.0 170.0)
  end
  begin
     id 20
     name lwrist
     direction 1 -4.49037e-011 2.57246e-027   
     length 1.60869   
     axis -1.61769e-015 90 90   XYZ
    dof ry
    limits (-180.0 0.0)
 end
  begin
     id 21 
     name lhand
     direction 1 -4.48807e-011 5.12958e-027   
     length 0.564313   
     axis -3.27988e-015 90 90   XYZ
    dof rx rz
    limits (-90.0 90.0)
           (-45.0 45.0)
  end
  begin
     id 22 
     name lfingers
     direction 1 -4.48879e-011 1.02687e-026   
     length 0.454963   
     axis -6.5598e-015 90 90   XYZ
    dof rx
    limits (0.0 90.0)
  end
  begin
     id 23
     name lthumb
     direction 0.707107 -6.3475e-011 0.707107   
     length 0.653239   
     axis -90 45 2.19363e-014   XYZ
    dof rx rz
    limits (-45.0 45.0)
           (-45.0 45.0)
  end
  begin
     id 24 
     name rclavicle
     direction -0.954677 0.253915 0.155304   
     length 3.11497  
     axis 0 0 0   XYZ 
    dof ry rz
    limits (-10.0 20.0)
           (-20.0 0.0)
  end
  begin
     id 25 
     name rhumerus
     direction -1 -4.48958e-011 -8.20169e-028  
     length 4.34118   
     axis 180 30 90   XYZ
    dof rx ry rz
    limits (-90.0 60.0)
           (-90.0 90.0)
           (-90.0 90.0)
  end
  begin
     id 26 
     name rradius
     direction -1 -4.48978e-011 1.5676e-027   
     length 3.09531   
     axis 180 30 90   XYZ
    dof rx
    limits (-10.0 170.0)
  end
  begin
     id 27 
     name rwrist
     direction -1 -4.49001e-011 2.57123e-027   
     length 1.54765   
     axis -1.61769e-015 -90 -90   XYZ
    dof ry
    limits (-180.0 0.0)
  end
  begin
     id 28
     name rhand
     direction -1 -4.48847e-011 5.13225e-027   
     length 0.597446   
     axis -3.27988e-015 -90 -90   XYZ
    dof rx rz
    limits (-90.0 90.0)
           (-45.0 45.0)
  end
  begin
     id 29
     name rfingers
     direction -1 -4.49094e-011 1.02974e-026   
     length 0.481677   
     axis -6.5598e-015 -90 -90   XYZ
    dof rx
    limits (0.0 90.0)
  end
  begin
     id 30
     name rthumb
     direction -0.707107 -6.34859e-011 0.707107   
     length 0.691594   
     axis -90 -45 -2.19363e-014   XYZ
    dof rx rz
    limits (-45.0 45.0)
           (-45.0 45.0)
  end
:hierarchy
  begin
    root lhipjoint rhipjoint lowerback
    lhipjoint lfemur
    lfemur ltibia
    ltibia lfoot
    lfoot ltoes
    rhipjoint rfemur
    rfemur rtibia
    rtibia rfoot
    rfoot rtoes
    lowerback upperback
    upperback thorax
    thorax lowerneck lclavicle rclavicle
    lowerneck upperneck
    upperneck head
    lclavicle lhumerus
    lhumerus lradius
    lradius lwrist
    lwrist lhand lthumb
    lhand lfingers
    rclavicle rhumerus
    rhumerus rradius
    rradius rwrist
    rwrist rhand rthumb
    rhand rfingers
  end

#!OML:ASF I:\Acrobat_Osman\acrobat\cartwheel_test 2\Patient 1\Session 1\acrobat.ASF
:FULLY-SPECIFIED
:DEGREES
887
root 7.09838 15.0211 -13.9791 4.81586 -0.575956 1.21521
lowerback 7.41206 0.218542 -2.76861
upperback 0.651821 0.159122 2.61
thorax -3.4991 0.138009 4.25548
lowerneck -12.339 -4.91091 -6.60084
upperneck 3.29335 -5.73261 3.03296
head 3.61397 -2.81209 1.7869
rclavicle 4.87022e-015 2.8625e-014
rhumerus 62.2907 17.7036 -39.8035
rradius 43.43
rwrist -22.9684
rhand -27.1791 25.0658
rfingers 7.12502
rthumb -0.59304 -4.91317
lclavicle 4.87022e-015 2.8625e-014
lhumerus 60.4669 -12.4779 38.654
lradius 47.7389
lwrist 45.789
lhand -21.7261 47.5619
lfingers 7.12502
lthumb 4.67329 437.49
rfemur -25.6231 2.56652 22.5777
rtibia 48.3096
rfoot -30.2901 -8.07073
rtoes -9.79352
lfemur -202.173 178.323 -205.299
ltibia 45.5215
lfoot -29.9101 7.4068
ltoes -35.3381
888
root 7.09125 14.9159 -14.0077 4.27947 -0.754944 1.60229
lowerback 7.82123 0.254316 -3.20132
upperback 0.775345 0.158215 2.52903
thorax -3.60069 0.143425 4.41887
lowerneck -12.5709 -4.8513 -6.44392
upperneck 3.00278 -5.65522 2.99203
head 3.54342 -2.76842 1.74794
rclavicle -1.02374e-014 -1.27222e-014
rhumerus 58.2281 23.1189 -41.7553
rradius 42.1337
rwrist -21.8391
rhand -25.8056 23.628
rfingers 7.12502
rthumb 0.73348 -6.35044
lclavicle -1.02374e-014 -1.27222e-014
lhumerus 56.808 -17.933 41.982
lradius 46.0912
lwrist 45.2338
lhand -22.1352 47.2319
lfingers 7.12502
lthumb 4.2782 437.169
rfemur -26.5588 1.88263 22.2365
rtibia 50.7693
rfoot -30.4497 -7.28054
rtoes -8.92455
lfemur -202.537 178.178 -205.75
ltibia 47.2427
lfoot -30.0145 8.17556
ltoes -36.0113
889
root 7.08183 14.809 -14.026 3.97932 -0.925142 2.34244
lowerback 7.47547 0.475545 -6.34709
upperback 1.19968 0.266634 4.31354
thorax -2.99826 0.219285 8.12077
lowerneck -13.0101 -4.90492 -8.15239
upperneck 2.42972 -5.34585 1.92113
head 3.43404 -2.67475 1.714
rclavicle -1.68967e-014 -3.49861e-014
rhumerus 55.3734 28.6774 -40.322
rradius 41.0493
rwrist -21.2515
rhand -27.0842 25.7393
rfingers 7.12502
rthumb -0.501401 -4.2399
lclavicle -1.68967e-014 -3.49861e-014
lhumerus 51.697 -21.3596 50.8902
lradius 43.0377
lwrist 43.2464
lhand -21.9643 47.6602
lfingers 7.12502
lthumb 4.4432 437.594
rfemur -27.9618 1.3482 21.4905
rtibia 53.5024
rfoot -30.451 -6.50188
rtoes -8.73448
lfemur -203.2 177.951 -206.563
ltibia 49.2028
lfoot -30.2491 8.4935
ltoes -35.9412
890
root 7.07167 14.6878 -14.039 3.68884 -1.0993 2.92499
lowerback 7.60075 0.320432 -4.52249
upperback 1.2406 0.12539 2.0269
thorax -2.99154 0.116403 4.64357
lowerneck -12.9021 -4.80468 -6.0228
upperneck 2.07363 -5.64243 3.24406
head 3.27255 -2.73544 1.75606
rclavicle -8.54774e-015 0
rhumerus 47.8337 31.5138 -50.2001
rradius 38.1802
rwrist -17.7712
rhand -28.0621 25.4164
rfingers 7.12502
rthumb -1.44588 -4.55847
lclavicle -8.54774e-015 0
lhumerus 47.2403 -26.437 53.0112
lradius 41.1109
lwrist 42.8457
lhand -21.3933 49.3911
lfingers 7.12502
lthumb 4.99463 439.312
rfemur -29.3999 0.995861 20.9275
rtibia 56.3751
rfoot -30.61 -5.84781
rtoes -8.15302
lfemur -204.032 177.642 -207.146
ltibia 51.5293
lfoot -30.5187 8.58358
ltoes -35.7952
891
root 7.05073 14.5386 -14.0392 3.16856 -1.21341 2.87065
lowerback 8.0753 0.40767 -4.48582
upperback 1.29348 0.219755 1.86462
thorax -3.21142 0.166954 4.44461
lowerneck -12.8341 -4.79803 -5.78014
upperneck 1.6656 -5.68563 3.51523
head 3.12095 -2.74122 1.80277
rclavicle -1.19271e-014 -4.77083e-015
rhumerus 38.877 32.6142 -59.5877
rradius 35.7849
rwrist -14.3269
rhand -27.4525 25.4566
rfingers 7.12502
rthumb -0.857095 -4.52146
lclavicle -1.19271e-014 -4.77083e-015
lhumerus 39.8314 -29.0906 60.8201
lradius 39.0112
lwrist 42.2205
lhand -21.0851 46.835
lfingers 7.12502
lthumb 5.29214 436.749
rfemur -30.3711 1.05022 21.1948
rtibia 59.2708
rfoot -30.9949 -5.78254
rtoes -7.1253
lfemur -204.812 177.093 -206.935
ltibia 54.2844
lfoot -30.8906 8.32295
ltoes -35.5651
892
root 7.0224 14.3827 -14.0233 2.53679 -1.27758 2.66828
lowerback 8.43978 0.517756 -4.49628
upperback 1.61989 0.35439 1.90566
thorax -3.08996 0.223925 4.47907
lowerneck -12.5516 -4.78768 -5.86583
upperneck 0.55057 -5.67631 3.90635
head 2.70213 -2.71985 1.95844
rclavicle -1.33186e-014 2.38542e-015
rhumerus 29.0071 29.9944 -70.2337
rradius 33.384
rwrist -10.9129
rhand -27.1015 26.3493
rfingers 7.12502
rthumb -0.518113 -3.62986
lclavicle -1.33186e-014 2.38542e-015
lhumerus 30.9976 -29.1867 69.9128
lradius 37.37
lwrist 41.5345
lhand -22.1364 48.2747
lfingers 7.12502
lthumb 4.27706 438.212
rfemur -31.1693 1.37527 21.6538
rtibia 62.1863
rfoot -31.4755 -5.83558
rtoes -6.57443
lfemur -205.524 176.392 -206.549
ltibia 57.3194
lfoot -31.3275 7.89531
ltoes -35.1523
893
root 6.99643 14.2162 -13.996 1.9899 -1.26827 2.63796
lowerback 9.11317 0.582871 -4.58864
upperback 1.71066 0.405293 1.91897
thorax -3.37635 0.255825 4.54114
lowerneck -11.7113 -4.68888 -6.07835
upperneck -0.87925 -5.55077 4.23842
head 2.07815 -2.64957 2.13354
rclavicle -1.65985e-014 7.95139e-015
rhumerus 19.0262 23.9635 -80.1203
rradius 31.4881
rwrist -8.27269
rhand -26.9675 27.7662
rfingers 7.12502
rthumb -0.388682 -2.21314
lclavicle -1.65985e-014 7.95139e-015
lhumerus 21.2074 -27.2247 78.5419
lradius 36.7202
lwrist 42.2264
lhand -22.1735 48.0215
lfingers 7.12502
lthumb 4.24124 437.959
rfemur -32.0549 1.60026 21.8831
rtibia 65.1176
rfoot -31.9809 -5.7405
rtoes -6.99128
lfemur -206.333 175.746 -206.401
ltibia 60.4752
lfoot -31.8204 7.65684
ltoes -34.8261
894
root 6.96896 14.034 -13.9552 1.43937 -1.13958 2.67377
lowerback 9.78578 0.527006 -4.9101
upperback 1.84288 0.277013 2.08109
thorax -3.59929 0.199494 4.91354
lowerneck -10.7838 -4.47038 -6.22748
upperneck -2.40921 -5.26791 4.13655
head 1.39 -2.512 2.16271
rclavicle 2.18663e-014 -7.95139e-016
rhumerus 10.0415 15.5282 -87.0094
rradius 30.6351
rwrist -7.26458
rhand -25.0548 28.6225
rfingers 7.12502
rthumb 1.45866 -1.35223
lclavicle 2.18663e-014 -7.95139e-016
lhumerus 10.8374 -22.4627 85.8761
lradius 36.8546
lwrist 42.6782
lhand -20.4718 48.4745
lfingers 7.12502
lthumb 5.88432 438.373
rfemur -32.8196 1.62686 22.0564
rtibia 67.9608
rfoot -32.5129 -5.63917
rtoes -8.01955
lfemur -207.07 175.221 -206.297
ltibia 63.5914
lfoot -32.5412 7.05366
ltoes -33.9783
895
root 6.93807 13.8577 -13.8977 0.761477 -0.991425 2.77646
lowerback 10.5132 0.470404 -5.37197
upperback 2.03639 0.125279 2.21174
thorax -3.78199 0.130738 5.3403
lowerneck -9.51706 -4.19293 -6.03983
upperneck -4.1272 -4.9704 3.79905
head 0.578747 -2.37107 2.06129
rclavicle -8.54774e-015 -1.59028e-015
rhumerus 1.89889 5.8834 -90.3677
rradius 30.6937
rwrist -8.02521
rhand -25.4648 29.4238
rfingers 7.12502
rthumb 1.06263 -0.553254
lclavicle -8.54774e-015 -1.59028e-015
lhumerus 1.3872 -15.9287 90.8298
lradius 36.9745
lwrist 43.2129
lhand -21.0608 50.1519
lfingers 7.12502
lthumb 5.31567 440.065
rfemur -33.2063 1.59208 22.1672
rtibia 70.4587
rfoot -33.1195 -5.54417
rtoes -8.83079
lfemur -207.439 174.698 -206.207
ltibia 66.4217
lfoot -33.4561 6.03091
ltoes -32.6094
896
root 6.91078 13.6966 -13.8251 0.188285 -0.79043 2.90794
lowerback 11.0046 0.369823 -5.66886
upperback 2.26252 -0.0663068 2.16478
thorax -3.79012 0.0330076 5.49036
lowerneck -8.49968 -3.97197 -5.77905
upperneck -5.30706 -4.74803 3.71499
head 0.00977122 -2.26483 2.02304
rclavicle -3.28989e-014 -2.22639e-014
rhumerus -5.76158 -4.34187 -90.5079
rradius 30.2275
rwrist -9.73098
rhand -25.4719 30.1498
rfingers 7.12502
rthumb 1.05583 0.172702
lclavicle -3.28989e-014 -2.22639e-014
lhumerus -7.67036 -9.19127 92.673
lradius 37.1925
lwrist 43.2386
lhand -20.2533 49.9682
lfingers 7.12502
lthumb 6.09527 439.86
rfemur -33.2269 1.4555 22.2111
rtibia 72.3177
rfoot -34.038 -5.45691
rtoes -9.23068
lfemur -207.598 174.254 -206.173
ltibia 68.6992
lfoot -34.4446 5.19133
ltoes -31.6118
897
root 6.88749 13.5734 -13.739 -0.0988014 -0.611206 2.97679
lowerback 11.1345 0.206885 -5.68603
upperback 2.44173 -0.296504 1.98596
thorax -3.64296 -0.091429 5.34231
lowerneck -8.34299 -3.87305 -5.65781
upperneck -5.37516 -4.63117 3.94022
head -0.0397989 -2.20859 2.08261
rclavicle -1.31198e-014 -1.43125e-014
rhumerus -13.4466 -13.9638 -87.2069
rradius 28.8135
rwrist -9.7617
rhand -27.0956 30.3166
rfingers 7.12502
rthumb -0.512408 0.337434
lclavicle -1.31198e-014 -1.43125e-014
lhumerus -15.75 -2.17399 91.7532
lradius 35.1757
lwrist 41.6388
lhand -20.8351 51.3249
lfingers 7.12502
lthumb 5.53352 441.233
rfemur -32.9002 1.1957 22.2999
rtibia 73.2871
rfoot -35.375 -5.56599
rtoes -9.69551
lfemur -207.527 174.019 -206.062
ltibia 70.126
lfoot -35.3553 4.91627
ltoes -31.8387
898
root 6.86833 13.5336 -13.6401 0.0470416 -0.657511 2.97324
lowerback 10.8003 0.145301 -5.34451
upperback 2.52061 -0.335177 1.62613
thorax -3.37623 -0.124973 4.76587
lowerneck -8.2401 -3.93483 -5.63893
upperneck -5.34339 -4.71172 4.52071
head -0.0254866 -2.24815 2.2691
rclavicle 1.77912e-014 -4.77083e-015
rhumerus -21.5683 -23.7733 -79.7302
rradius 25.4293
rwrist -5.03203
rhand -27.5397 29.5848
rfingers 7.12502
rthumb -0.941363 -0.392908
lclavicle 1.77912e-014 -4.77083e-015
lhumerus -23.2872 4.21048 87.8822
lradius 32.3511
lwrist 40.2227
lhand -17.1874 48.6251
lfingers 7.12502
lthumb 9.05453 438.411
rfemur -32.4486 1.04795 22.4182
rtibia 73.1665
rfoot -36.5758 -5.66068
rtoes -9.062
lfemur -207.221 173.92 -205.855
ltibia 70.3821
lfoot -35.9166 5.40686
ltoes -33.9552
899
root 6.85266 13.5963 -13.5307 0.876858 -0.877134 2.97698
lowerback 9.62496 0.194954 -5.5177
upperback 2.59155 -0.219973 1.72068
thorax -2.66494 -0.0909268 4.93493
lowerneck -7.92494 -4.01465 -6.13189
upperneck -6.05018 -4.77692 4.91865
head -0.275312 -2.27143 2.50272
rclavicle -4.96962e-016 6.36111e-015
rhumerus -31.194 -33.998 -65.8603
rradius 21.089
rwrist 6.11221
rhand -28.5248 30.8142
rfingers 7.12502
rthumb -1.89277 0.842854
lclavicle -4.96962e-016 6.36111e-015
lhumerus -30.2662 10.5016 81.7719
lradius 28.6425
lwrist 39.8181
lhand -22.6138 53.003
lfingers 7.12502
lthumb 3.81607 442.949
rfemur -32.3285 1.15203 22.4705
rtibia 72.0101
rfoot -36.9296 -5.47884
rtoes -6.96084
lfemur -207.092 173.908 -205.71
ltibia 69.4161
lfoot -35.987 5.56593
ltoes -36.0277
900
root 6.83342 13.7496 -13.4252 1.0898 -1.06415 2.98008
lowerback 9.29507 0.259142 -5.61464
upperback 2.84635 -0.120162 1.77235
thorax -2.22838 -0.0615527 5.02832
lowerneck -7.31877 -4.03577 -6.29895
upperneck -7.56516 -4.80483 4.85
head -0.85878 -2.28028 2.54504
rclavicle -1.3418e-014 -7.95139e-016
rhumerus -45.554 -42.7022 -44.6019
rradius 18.0603
rwrist 18.909
rhand -30.5543 32.5241
rfingers 7.12502
rthumb -3.85277 2.57915
lclavicle -1.3418e-014 -7.95139e-016
lhumerus -37.9973 20.3421 69.8161
lradius 24.6446
lwrist 34.8099
lhand -21.3976 52.2049
lfingers 7.12502
lthumb 4.99046 442.126
rfemur -30.8897 1.25317 22.5696
rtibia 69.7321
rfoot -36.5726 -5.45099
rtoes -5.31757
lfemur -205.78 173.763 -205.444
ltibia 67.1722
lfoot -35.3821 4.96869
ltoes -36.9598
901
root 6.81215 13.9799 -13.324 1.67139 -1.12483 2.90592
lowerback 8.65471 0.335461 -5.24359
upperback 2.86129 0.0420959 1.53652
thorax -1.88143 0.00904929 4.54731
lowerneck -6.27353 -4.12404 -5.95536
upperneck -9.03288 -4.97858 4.85982
head -1.50747 -2.37908 2.53755
rclavicle 1.02374e-014 1.39149e-014
rhumerus -57.6458 -41.9437 -27.6836
rradius 19.4704
rwrist 16.0657
rhand -32.5107 38.593
rfingers 7.12502
rthumb -5.74183 8.69081
lclavicle 1.02374e-014 1.39149e-014
lhumerus -47.3507 26.3055 54.4219
lradius 23.9179
lwrist 35.958
lhand -22.2033 54.2849
lfingers 7.12502
lthumb 4.21243 444.223
rfemur -29.3474 1.22379 22.7146
rtibia 66.4873
rfoot -35.4881 -5.32167
rtoes -4.08866
lfemur -204.512 173.691 -205.159
ltibia 63.9011
lfoot -33.6572 3.86068
ltoes -36.6347
